<?xml version="1.0" standalone="no"?>
<!DOCTYPE svg PUBLIC "-//W3C//DTD SVG 20010904//EN"
 "http://www.w3.org/TR/2001/REC-SVG-20010904/DTD/svg10.dtd">
<svg version="1.0" xmlns="http://www.w3.org/2000/svg"
 width="400.000000pt" height="400.000000pt" viewBox="0 0 400.000000 400.000000"
 preserveAspectRatio="xMidYMid meet">
<metadata>
Created by potrace 1.14, written by Peter Selinger 2001-2017
</metadata>
<g transform="translate(0.000000,400.000000) scale(0.100000,-0.100000)"
fill="#000000" stroke="none">
<path d="M3295 2380 c-73 -12 -121 -35 -175 -86 -73 -68 -94 -126 -95 -254 0
-116 15 -164 75 -240 39 -49 133 -97 208 -105 113 -12 107 -8 173 -115 l61
-98 67 30 c36 16 69 32 73 36 11 11 -86 156 -115 171 l-26 14 39 28 c85 62
125 163 118 302 -6 127 -49 210 -138 266 -76 48 -170 66 -265 51z m153 -167
c93 -67 97 -261 8 -342 -39 -37 -128 -41 -175 -9 -47 31 -71 76 -78 142 -10
100 28 194 91 222 41 19 120 12 154 -13z"/>
<path d="M264 2366 c-3 -7 -4 -40 -2 -72 l3 -59 108 -3 107 -3 0 -264 0 -265
90 0 90 0 0 265 0 265 105 0 105 0 0 75 0 75 -300 0 c-245 0 -302 -3 -306 -14z"/>
<path d="M930 2177 c0 -226 10 -301 47 -365 90 -157 407 -163 509 -10 44 65
54 137 54 377 l0 202 -87 -3 -88 -3 -5 -237 -5 -238 -27 -26 c-34 -35 -110
-44 -157 -19 -55 28 -61 57 -61 305 l0 220 -90 0 -90 0 0 -203z"/>
<path d="M1660 2041 l0 -341 85 0 85 0 0 125 0 125 41 0 c22 0 49 -4 59 -10
10 -5 46 -62 80 -125 l61 -115 173 0 173 0 28 70 28 70 152 0 152 0 28 -70 28
-70 88 0 89 0 -13 28 c-6 15 -77 167 -157 337 l-146 310 -69 3 -70 2 -149
-320 c-82 -176 -152 -320 -155 -320 -4 0 -31 43 -61 95 -32 57 -65 103 -82
114 l-29 18 29 12 c121 50 150 246 51 338 -52 48 -92 56 -301 61 l-198 5 0
-342z m364 178 c20 -16 26 -29 26 -59 0 -61 -32 -80 -136 -80 l-84 0 0 80 0
80 84 0 c69 0 88 -4 110 -21z m666 -181 c13 -32 21 -60 18 -63 -3 -3 -44 -5
-91 -3 l-85 3 46 109 45 109 22 -49 c12 -27 32 -75 45 -106z"/>
</g>
</svg>
