<svg width="21" height="18" viewBox="0 0 21 18" fill="none" xmlns="http://www.w3.org/2000/svg">
<path d="M18.1798 1.12222C17.9533 0.466667 17.3192 0 16.5718 0H4.11607C3.36872 0 2.74593 0.466667 2.50814 1.12222L0.277424 7.42222C0.19816 7.65556 0.152866 7.9 0.152866 8.15556V16.1111C0.152866 17.0333 0.911536 17.7778 1.85138 17.7778C2.79122 17.7778 3.54989 17.0333 3.54989 16.1111V15.5556H17.138V16.1111C17.138 17.0222 17.8967 17.7778 18.8365 17.7778C19.765 17.7778 20.535 17.0333 20.535 16.1111V8.15556C20.535 7.91111 20.4897 7.65556 20.4105 7.42222L18.1798 1.12222ZM4.11607 12.2222C3.17622 12.2222 2.41755 11.4778 2.41755 10.5556C2.41755 9.63333 3.17622 8.88889 4.11607 8.88889C5.05591 8.88889 5.81458 9.63333 5.81458 10.5556C5.81458 11.4778 5.05591 12.2222 4.11607 12.2222ZM16.5718 12.2222C15.632 12.2222 14.8733 11.4778 14.8733 10.5556C14.8733 9.63333 15.632 8.88889 16.5718 8.88889C17.5117 8.88889 18.2703 9.63333 18.2703 10.5556C18.2703 11.4778 17.5117 12.2222 16.5718 12.2222ZM2.41755 6.66667L3.85563 2.42222C4.01415 1.97778 4.44444 1.66667 4.93135 1.66667H15.7565C16.2435 1.66667 16.6737 1.97778 16.8323 2.42222L18.2703 6.66667H2.41755Z" fill="#D9D9D9"/>
</svg>
