<svg width="18" height="11" viewBox="0 0 18 11" fill="none" xmlns="http://www.w3.org/2000/svg">
<rect x="5.8393" y="-0.213257" width="2" height="8" rx="1" transform="rotate(45 5.8393 -0.213257)" fill="#D9D9D9"/>
<path d="M6.5929 9.0929C6.98342 9.48342 6.98342 10.1166 6.5929 10.5071C6.20237 10.8976 5.56921 10.8976 5.17868 10.5071L0.936043 6.26447C0.545519 5.87395 0.545519 5.24078 0.936043 4.85026C1.32657 4.45973 1.95973 4.45973 2.35026 4.85026L6.5929 9.0929Z" fill="#D9D9D9"/>
<rect x="12.1607" y="11.2133" width="2" height="8" rx="1" transform="rotate(-135 12.1607 11.2133)" fill="#D9D9D9"/>
<path d="M11.4071 1.9071C11.0166 1.51658 11.0166 0.883413 11.4071 0.492889C11.7976 0.102365 12.4308 0.102365 12.8213 0.492889L17.064 4.73553C17.4545 5.12605 17.4545 5.75922 17.064 6.14974C16.6734 6.54027 16.0403 6.54027 15.6497 6.14974L11.4071 1.9071Z" fill="#D9D9D9"/>
</svg>
