<svg width="20" height="14" viewBox="0 0 20 14" fill="none" xmlns="http://www.w3.org/2000/svg">
<path d="M0.200012 6.99997C1.1212 5.19299 2.52406 3.67588 4.25353 2.61631C5.98301 1.55674 7.97177 0.995972 10 0.995972C12.0283 0.995972 14.017 1.55674 15.7465 2.61631C17.476 3.67588 18.8788 5.19299 19.8 6.99997C18.8788 8.80696 17.476 10.3241 15.7465 11.3836C14.017 12.4432 12.0283 13.004 10 13.004C7.97177 13.004 5.98301 12.4432 4.25353 11.3836C2.52406 10.3241 1.1212 8.80696 0.200012 6.99997ZM10 11C11.0609 11 12.0783 10.5785 12.8284 9.8284C13.5786 9.07825 14 8.06084 14 6.99997C14 5.93911 13.5786 4.92169 12.8284 4.17155C12.0783 3.4214 11.0609 2.99997 10 2.99997C8.93915 2.99997 7.92173 3.4214 7.17159 4.17155C6.42144 4.92169 6.00001 5.93911 6.00001 6.99997C6.00001 8.06084 6.42144 9.07825 7.17159 9.8284C7.92173 10.5785 8.93915 11 10 11ZM10 8.99997C9.46958 8.99997 8.96087 8.78926 8.5858 8.41419C8.21073 8.03911 8.00001 7.53041 8.00001 6.99997C8.00001 6.46954 8.21073 5.96083 8.5858 5.58576C8.96087 5.21069 9.46958 4.99997 10 4.99997C10.5304 4.99997 11.0392 5.21069 11.4142 5.58576C11.7893 5.96083 12 6.46954 12 6.99997C12 7.53041 11.7893 8.03911 11.4142 8.41419C11.0392 8.78926 10.5304 8.99997 10 8.99997Z" fill="#5A80C8"/>
</svg>
