<svg width="18" height="18" viewBox="0 0 18 18" fill="none" xmlns="http://www.w3.org/2000/svg">
<path d="M11.65 1.98L6.65 0.23C6.23 0.0799999 5.77 0.08 5.35 0.22L1.36 1.56C0.55 1.84 0 2.6 0 3.46V15.31C0 16.72 1.41 17.68 2.72 17.17L5.65 16.03C5.87 15.94 6.12 15.94 6.34 16.02L11.34 17.77C11.76 17.92 12.22 17.92 12.64 17.78L16.63 16.44C17.44 16.17 17.99 15.4 17.99 14.54V2.69C17.99 1.28 16.58 0.32 15.27 0.83L12.34 1.97C12.12 2.05 11.88 2.06 11.65 1.98ZM12 15.89L6 13.78V2.11L12 4.22V15.89Z" fill="#D9D9D9"/>
</svg>
