<svg width="24" height="24" viewBox="0 0 24 24" fill="none" xmlns="http://www.w3.org/2000/svg">
<g clip-path="url(#clip0_50_413)">
<path d="M8.88889 12.2222H10.5556C11.587 12.2222 12.5761 11.8125 13.3054 11.0832C14.0347 10.3539 14.4444 9.36473 14.4444 8.33333C14.4444 7.30194 14.0347 6.31278 13.3054 5.58347C12.5761 4.85417 11.587 4.44444 10.5556 4.44444H6.66667V15.5556H8.88889V12.2222ZM1.11111 0H18.8889C19.1836 0 19.4662 0.117063 19.6746 0.325437C19.8829 0.533811 20 0.816426 20 1.11111V18.8889C20 19.1836 19.8829 19.4662 19.6746 19.6746C19.4662 19.8829 19.1836 20 18.8889 20H1.11111C0.816426 20 0.533811 19.8829 0.325437 19.6746C0.117063 19.4662 0 19.1836 0 18.8889V1.11111C0 0.816426 0.117063 0.533811 0.325437 0.325437C0.533811 0.117063 0.816426 0 1.11111 0ZM8.88889 6.66667H10.5556C10.9976 6.66667 11.4215 6.84226 11.7341 7.15482C12.0466 7.46738 12.2222 7.8913 12.2222 8.33333C12.2222 8.77536 12.0466 9.19928 11.7341 9.51184C11.4215 9.8244 10.9976 10 10.5556 10H8.88889V6.66667Z" fill="white"/>
<path d="M4.89906 23.5697L3.54586 18.5528L8.56718 19.8893L4.89906 23.5697Z" fill="white"/>
</g>
<defs>
<clipPath id="clip0_50_413">
<rect width="24" height="24" fill="white"/>
</clipPath>
</defs>
</svg>
