<svg width="20" height="19" viewBox="0 0 20 19" fill="none" xmlns="http://www.w3.org/2000/svg">
<path d="M10 0.666668C11.3261 0.666668 12.5979 1.19345 13.5355 2.13113C14.4732 3.06882 15 4.34059 15 5.66667C15 6.99275 14.4732 8.26452 13.5355 9.2022C12.5979 10.1399 11.3261 10.6667 10 10.6667C8.67392 10.6667 7.40215 10.1399 6.46447 9.2022C5.52678 8.26452 5 6.99275 5 5.66667C5 4.34059 5.52678 3.06882 6.46447 2.13113C7.40215 1.19345 8.67392 0.666668 10 0.666668ZM10 13.1667C15.525 13.1667 20 15.4042 20 18.1667V20.6667H0V18.1667C0 15.4042 4.475 13.1667 10 13.1667Z" fill="#D9D9D9"/>
</svg>
